<svg width="258" height="258" viewBox="0 0 258 258" fill="none" xmlns="http://www.w3.org/2000/svg">
    <path d="M136.44 0.800026C164.384 1.09303 194.992 13.46 219.903 38.549C246.324 65.16 258.702 97.727 257.053 135.193C255.594 168.336 242.818 196.928 219.207 220.162C192.478 246.466 159.906 258.795 122.447 257.045C89.539 255.508 61.122 242.785 38.005 219.376C11.653 192.692 -0.528027 160.158 0.903973 122.685C1.61597 104.069 6.45597 86.413 15.075 69.905C25.613 49.722 40.479 33.337 59.67 21.047C80.754 7.54403 103.875 0.770026 136.44 0.800026ZM129.482 129.721C120.885 129.721 112.288 129.721 103.691 129.721C82.298 129.721 60.905 129.728 39.512 129.697C38.51 129.696 38.205 129.944 38.272 130.946C38.396 132.792 38.229 134.64 38.966 136.441C39.308 137.277 39.17 138.286 39.386 139.238C39.753 140.85 40.49 142.405 40.456 144.108C40.454 144.224 40.469 144.348 40.508 144.457C40.966 145.732 41.463 146.994 41.88 148.283C42.139 149.083 42.342 149.893 42.702 150.666C43.132 151.588 43.517 152.543 43.792 153.52C44.218 155.03 44.955 156.401 45.575 157.823C46.754 160.527 48.128 163.135 49.596 165.694C50.015 166.424 50.337 167.228 50.85 167.882C51.744 169.021 52.503 170.26 53.306 171.446C54.416 173.087 55.428 174.787 56.768 176.261C56.895 176.401 57.122 176.497 57.17 176.655C57.682 178.33 59.146 179.371 60.224 180.506C62.415 182.813 64.738 185.025 67.003 187.281C68.103 188.376 69.055 189.697 70.329 190.522C72.233 191.753 73.842 193.342 75.734 194.589C77.002 195.425 78.204 196.467 79.483 197.281C81.527 198.583 83.525 199.991 85.775 200.985C87.071 201.558 88.272 202.521 89.53 203.026C91.373 203.765 93.034 204.985 94.98 205.364C96.155 205.593 97.07 206.324 98.233 206.561C99.343 206.788 100.493 207.144 101.508 207.619C102.845 208.245 104.269 208.493 105.643 208.825C106.575 209.05 107.666 209.208 108.501 209.511C110.208 210.13 112.005 210.195 113.71 210.765C114.906 211.165 116.264 210.877 117.59 211.212C118.956 211.557 120.504 211.565 121.958 211.52C128.874 211.307 135.825 212.193 142.707 210.844C143.863 210.617 145.031 210.803 146.249 210.452C147.628 210.054 149.085 209.823 150.505 209.44C152.409 208.927 154.371 208.718 156.262 208.016C158.194 207.298 160.208 206.774 162.142 206.029C163.406 205.542 164.683 205.089 165.938 204.581C166.619 204.306 167.272 203.96 167.927 203.624C170.017 202.551 172.127 201.513 174.179 200.372C175.724 199.513 177.164 198.464 178.708 197.602C179.581 197.114 180.474 196.637 181.193 195.971C182.538 194.727 184.17 193.894 185.586 192.734C186.971 191.6 188.346 190.417 189.76 189.304C191.22 188.155 192.494 186.753 193.769 185.388C195.442 183.597 197.297 181.998 198.899 180.119C200.341 178.428 201.773 176.742 203.136 174.985C203.783 174.15 204.512 173.325 205 172.429C205.459 171.587 206.112 170.895 206.611 170.104C207.178 169.207 207.596 168.203 208.267 167.381C209.33 166.079 209.894 164.493 210.77 163.082C211.671 161.631 212.263 159.949 212.965 158.371C213.912 156.244 214.873 154.132 215.636 151.931C215.662 151.857 215.654 151.766 215.694 151.704C216.673 150.206 216.796 148.394 217.507 146.785C218.167 145.295 218.49 143.649 218.911 142.074C219.282 140.689 219.363 139.234 219.898 137.845C220.21 137.035 219.96 136.086 220.358 135.157C220.75 134.242 220.446 133.09 220.626 132.021C221.009 129.738 220.913 129.722 218.613 129.722C188.902 129.721 159.192 129.721 129.482 129.721ZM89.646 84.068C89.352 82.815 89.907 81.206 89.255 79.546C88.803 78.396 88.793 77.064 88.275 75.823C87.682 74.402 87.375 72.933 86.366 71.633C84.92 69.769 83.637 67.915 81.072 67.46C78.525 67.008 76.348 67.552 74.48 69.347C73.78 70.02 73.102 70.657 72.59 71.544C71.964 72.628 70.984 73.506 71.157 74.919C71.185 75.149 70.992 75.402 70.865 75.383C70.229 75.285 70.421 75.655 70.547 75.926C70.654 76.155 70.783 76.5 70.591 76.56C69.829 76.799 69.893 77.197 70.152 77.802C70.39 78.358 69.45 78.21 69.493 78.696C69.548 79.323 69.341 79.966 69.64 80.58C69.781 80.87 69.859 81.356 69.584 81.449C68.722 81.742 69.032 82.404 69.018 82.943C68.987 84.181 69.008 85.421 69.009 86.66C69.009 86.86 68.99 87.227 69.03 87.234C70.068 87.421 69.491 88.102 69.507 88.63C69.525 89.244 69.26 89.913 69.731 90.467C70.214 91.035 70.334 91.865 70.413 92.437C70.58 93.645 71.075 94.796 71.582 95.708C72.351 97.092 73.248 98.557 74.576 99.582C75.307 100.145 76.031 100.931 76.867 101.109C82.501 102.307 84.639 100.052 87.256 95.742C88.058 94.421 88.376 92.951 88.772 91.463C89.363 89.243 89.732 87.054 89.645 84.773C89.642 84.654 89.646 84.534 89.646 84.068ZM169.312 84.42C169.35 86.361 169.314 88.283 169.729 90.227C170.037 91.667 170.46 93.077 170.999 94.39C171.584 95.816 172.459 97.15 173.433 98.441C174.533 99.9 175.84 100.773 177.398 101.182C180.179 101.912 182.748 101.313 184.826 99.161C185.264 98.708 185.432 97.862 185.773 97.667C186.611 97.188 186.955 96.277 187.179 95.687C188.136 93.161 189.324 90.651 189.239 87.834C189.225 87.362 189.127 86.781 189.35 86.432C190.089 85.276 189.972 83.893 189.585 82.921C188.897 81.192 189.67 79.366 188.808 77.682C188.429 76.942 188.308 76.001 187.932 75.204C187.458 74.199 187.236 73.122 186.531 72.164C185.785 71.15 185.2 69.975 184.284 69.106C183.658 68.512 182.816 68.078 181.997 67.769C180.189 67.087 178.315 67.109 176.527 67.827C175.091 68.404 174.079 69.562 173.124 70.751C172.777 71.183 172.346 71.474 172.125 72.083C171.7 73.252 171.064 74.325 170.637 75.529C169.923 77.541 169.444 79.553 169.325 81.663C169.272 82.579 169.315 83.5 169.312 84.42Z" fill="#93AB3D"/>
    </svg>
    