<svg width="257" height="257" viewBox="0 0 257 257" fill="none" xmlns="http://www.w3.org/2000/svg">
    <path d="M121.704 256.447C92.824 256.135 62.245 243.788 37.351 218.739C10.914 192.137 -1.48199 159.576 0.151014 122.102C1.59201 89.045 14.294 60.498 37.797 37.276C64.542 10.852 97.169 -1.54601 134.725 0.194989C167.639 1.72099 196.06 14.445 219.183 37.855C245.539 64.54 257.726 97.077 256.289 134.555C255.577 153.143 250.753 170.771 242.145 187.263C231.585 207.494 216.705 223.895 197.467 236.216C176.379 249.723 153.272 256.452 121.704 256.447ZM162.272 175.372C162.472 175.156 162.623 174.864 162.757 174.872C163.086 174.892 162.986 175.226 162.987 175.441C162.996 177.401 163.111 179.369 162.958 181.317C162.815 183.148 163.518 185.013 162.351 186.847C161.759 187.777 162.559 189.217 161.635 190.419C161.131 191.074 161.616 192.266 160.929 193.257C160.405 194.012 159.661 195.078 160.092 196.274C160.116 196.341 160.011 196.53 159.942 196.543C159.001 196.731 159.133 197.739 158.766 198.3C158.228 199.121 157.796 200.105 157.407 201.053C157.211 201.532 156.578 201.224 156.5 201.823C156.365 202.87 155.68 203.705 155.253 204.64C155.036 205.114 154.274 204.819 154.379 205.404C154.514 206.158 154.045 206.601 153.591 206.971C153.117 207.356 152.813 207.719 152.905 208.35C152.932 208.534 152.869 208.69 152.684 208.847C151.847 209.563 151.048 210.323 150.23 211.061C149.869 211.387 150.157 211.831 150.011 212.181C149.637 213.084 149.706 211.646 149.313 212.053C147.628 213.794 146.06 215.666 143.85 216.828C143.427 217.05 143.118 217.394 142.601 217.589C141.996 217.817 141.242 218.033 140.781 218.423C140.08 219.017 139.221 219.177 138.49 219.634C138.223 219.801 137.757 219.637 137.808 220.199C137.861 220.784 138.307 220.593 138.624 220.615C141.256 220.8 143.867 220.252 146.499 220.378C146.618 220.384 146.834 220.391 146.843 220.355C147.179 219.074 148.209 219.867 148.9 219.666C149.217 219.574 149.847 219.777 149.839 219.516C149.811 218.582 150.459 218.998 150.817 218.956C151.448 218.881 152.635 218.968 152.646 218.877C152.788 217.665 153.686 218.428 154.177 218.232C154.388 218.148 154.85 218.225 154.859 218.173C155.04 217.065 155.906 217.647 156.465 217.506C156.655 217.458 157.032 217.486 157.035 217.455C157.131 216.297 158.726 217.156 158.863 216.089C159.939 216.335 160.864 215.813 161.669 215.296C162.345 214.863 163.104 214.613 163.785 214.196C164.416 213.81 165.117 213.291 165.884 213.216C166.583 213.148 167.255 213.214 167.622 212.472C168.002 211.703 168.931 211.916 169.445 211.441C169.967 210.958 170.534 210.569 171.099 210.177C171.783 209.702 172.838 209.8 173.297 208.737C173.522 208.216 174.217 207.346 174.876 207.265C175.802 207.15 176.164 206.567 176.698 206.03C178.254 204.466 179.999 203.065 181.393 201.373C182.707 199.777 184.92 198.908 185.355 196.592C185.367 196.53 185.465 196.488 185.506 196.426C186.128 195.48 187.904 195.38 187.528 193.684C187.52 193.649 187.898 193.563 187.904 193.487C187.963 192.718 189.272 193.055 189.084 192.247C188.949 191.668 188.802 191.366 189.567 191.313C189.981 191.285 189.888 190.935 189.769 190.671C189.65 190.407 189.491 190.05 189.837 189.965C190.483 189.806 190.446 189.356 190.424 188.903C190.413 188.679 190.379 188.484 190.661 188.487C191.423 188.496 191.41 188.053 191.204 187.542C191.091 187.263 191.112 187.175 191.406 187.026C192.242 186.601 192.022 185.465 192.733 184.931C192.749 184.919 192.723 184.856 192.721 184.816C192.674 184.026 193.856 183.66 193.439 182.742C193.479 182.736 193.518 182.725 193.558 182.726C194.333 182.733 194.281 182.264 194.075 181.768C193.95 181.467 193.989 181.311 194.313 181.283C195.384 181.19 194.667 180.521 194.752 180.082C194.834 179.659 195.966 179.945 195.593 179.04C195.563 178.966 195.53 178.892 195.489 178.824C195.389 178.658 195.416 178.459 195.59 178.446C196.862 178.356 196.232 177.446 196.286 176.844C196.301 176.678 196.018 176.365 196.25 176.346C197.401 176.256 196.979 175.569 196.921 174.926C196.905 174.742 196.917 174.226 197.283 174.144C197.803 174.027 197.179 174.721 197.719 174.724C197.833 174.227 197.826 173.726 197.721 173.228C197.676 173.016 197.427 172.702 197.808 172.677C198.942 172.602 198.38 171.775 198.489 171.253C198.536 171.029 198.157 170.69 198.372 170.621C200.005 170.093 199.053 168.925 199.056 168.004C199.057 167.829 199.048 167.644 199.221 167.635C200.43 167.571 199.81 166.677 199.91 166.122C199.946 165.925 199.562 165.567 199.882 165.529C201.181 165.375 200.487 164.404 200.669 163.796C200.885 163.077 200.051 162.039 201.326 161.626C201.388 161.606 201.396 161.326 201.381 161.172C201.195 159.258 201.64 157.37 201.622 155.465C201.57 149.69 201.821 143.91 201.366 138.143C201.315 137.495 201.949 136.458 200.589 136.306C200.407 136.286 200.485 136.068 200.549 135.911C200.785 135.335 200.741 134.703 200.636 134.14C200.497 133.391 201.343 132.242 199.834 131.947C199.588 131.899 199.939 131.552 199.931 131.33C199.912 130.83 200.133 129.962 199.821 129.896C198.638 129.645 199.204 128.929 199.21 128.321C199.215 127.867 199.435 127.09 199.091 127.009C198.054 126.764 198.393 126.176 198.479 125.548C198.537 125.128 198.652 124.348 198.383 124.315C197.178 124.164 197.876 123.377 197.789 122.865C197.75 122.632 197.765 122.197 197.708 122.189C196.485 122.014 197.147 121.123 197.078 120.538C197.033 120.157 197.058 119.818 196.524 119.83C196.26 119.836 196.133 119.738 196.198 119.385C196.324 118.689 196.86 117.813 195.542 117.572C195.243 117.517 195.613 117.179 195.604 116.967C195.585 116.502 195.808 115.682 195.459 115.643C194.496 115.535 194.807 115.044 194.894 114.528C194.923 114.353 194.853 114.001 194.802 113.996C193.499 113.867 194.216 112.983 194.181 112.385C194.175 112.282 194.142 112.18 194.119 112.066C193.86 112.154 193.884 112.527 193.509 112.515C193.547 112.094 193.048 111.743 193.422 111.233C193.535 111.078 193.522 110.589 193.333 110.597C192.047 110.655 193.212 108.663 191.839 108.853C192.55 107.832 191.487 107.501 191.019 107.193C190.184 106.643 190.722 105.351 189.619 105.013C188.629 104.709 189.359 103.238 188.194 102.868C187.252 102.569 187.74 101.105 186.747 100.623C186.55 100.527 185.906 100.447 186.081 100.141C186.782 98.916 185.388 98.88 185.031 98.318C184.666 97.743 184.167 97.257 183.833 96.596C183.515 95.967 183.257 95.295 182.904 94.709C182.435 93.929 181.898 93.175 181.735 92.295C181.598 91.559 181.201 91.517 180.643 91.525C180.106 91.532 179.545 91.491 179.551 92.268C179.559 93.266 179.474 94.284 179.651 95.253C179.734 95.707 179.467 95.994 179.509 96.369C179.51 96.379 178.963 97.983 178.964 97.997C178.981 98.402 179.165 98.895 178.499 98.96C178.09 99 178.003 99.294 178.169 99.543C178.961 100.735 176.905 101.293 177.554 102.43C177.407 102.476 177.262 102.549 177.112 102.561C176.831 102.584 176.545 102.764 176.706 102.981C177.347 103.842 176.338 104.382 176.106 104.49C175.376 104.829 174.988 105.088 175.406 105.92C175.485 106.078 175.114 106.107 175.099 106.173C174.927 106.895 173.602 106.655 173.837 107.599C173.96 108.095 173.726 108.125 173.502 108.43C172.956 109.173 172.167 109.61 171.628 110.449C171.628 108.468 171.629 106.649 171.627 104.829C171.627 104.63 171.65 104.273 171.588 104.255C170.395 103.922 170.991 102.96 170.934 102.291C170.839 101.179 170.919 100.054 170.9 98.934C170.896 98.678 171.057 98.233 170.776 98.189C169.932 98.058 170.216 97.448 170.198 96.997C170.163 96.079 170.203 95.157 170.179 94.238C170.17 93.903 170.369 93.383 169.965 93.274C169.298 93.095 169.396 92.602 169.487 92.242C169.969 90.34 168.364 88.75 168.728 86.877C168.757 86.727 168.687 86.544 168.493 86.519C167.875 86.44 167.982 85.949 168.041 85.601C168.313 84 166.81 82.704 167.29 81.08C166.295 80.579 166.954 79.338 166.498 78.909C165.787 78.24 165.913 77.574 165.857 76.843C165.848 76.731 165.805 76.538 165.745 76.525C164.855 76.323 165.222 75.612 165.15 75.084C165.123 74.887 165.185 74.538 165.108 74.508C163.776 73.985 164.86 72.426 163.801 71.583C163.314 71.196 162.531 69.98 162.974 68.855C162.01 68.394 162.333 67.498 162.259 66.736C162.244 66.578 162.124 66.478 162.048 66.354C161.615 65.648 161.229 64.913 160.831 64.186C160.369 63.343 160.048 62.486 159.954 61.49C159.93 61.235 159.586 60.544 159.32 60.243C158.839 59.697 158.874 58.793 158.482 58.548C157.638 58.022 157.843 57.074 157.34 56.412C156.973 55.928 156.651 54.966 156.339 54.323C155.799 53.207 154.99 52.251 155.059 50.91C155.063 50.835 155.051 50.709 155.006 50.687C154.095 50.238 154.273 49.131 153.673 48.452C153.425 48.171 152.743 48.584 152.923 47.928C153.233 46.805 152.558 46.15 151.816 45.535C151.621 45.374 151.425 45.249 151.477 44.974C151.644 44.078 150.926 43.285 150.583 42.832C149.761 41.748 149.385 40.459 148.712 39.337C148.048 38.23 147.656 36.99 146.638 36.056C146.128 35.588 146.555 34.489 145.633 34.142C146.054 33.157 144.521 32.802 144.872 31.823C144.887 31.782 144.647 31.631 144.511 31.558C143.897 31.227 143.54 30.831 143.495 30.024C143.46 29.401 142.426 29.017 142.798 28.143C141.871 28.029 142.167 27.293 142.076 26.744C142.034 26.49 141.75 26.58 141.606 26.485C141.092 26.148 140.485 25.863 140.66 25.041C140.737 24.676 140.693 24.302 140.142 24.332C139.941 24.343 139.657 24.255 139.77 24.02C140.182 23.159 139.499 23.435 139.144 23.385C138.565 23.303 138.498 23.659 138.51 24.117C138.528 24.836 138.377 25.593 138.556 26.265C138.711 26.849 137.799 27.168 138.34 27.722C137.62 27.768 137.85 28.314 137.789 28.731C137.516 30.582 138.182 32.438 137.188 34.352C136.521 35.638 137.393 37.466 136.411 38.975C136.064 39.509 136.372 40.459 136.348 41.218C136.335 41.647 136.553 42.336 136.2 42.457C135.371 42.74 135.68 43.33 135.644 43.82C135.59 44.535 135.879 45.652 135.531 45.895C134.59 46.553 135.04 47.36 134.917 48.1C134.828 48.638 135.193 49.465 134.721 49.67C133.976 49.993 134.253 50.489 134.202 50.941C134.122 51.649 134.522 52.681 134.052 53.007C133.26 53.557 133.493 54.179 133.49 54.795C133.482 56.193 132.307 57.362 132.722 58.836C132.74 58.901 132.609 59.079 132.532 59.09C131.834 59.184 131.961 59.76 132.059 60.108C132.458 61.528 130.879 62.516 131.285 63.913C131.293 63.941 131.263 63.994 131.235 64.015C129.944 64.973 130.675 66.595 130.01 67.862C129.563 68.713 128.69 69.848 129.129 71.109C128.178 71.525 128.484 72.379 128.425 73.108C128.416 73.22 128.385 73.37 128.308 73.432C127.312 74.222 127.288 75.557 127.129 76.527C126.935 77.706 125.259 78.462 126.2 79.869C126.135 79.91 126.075 79.977 126.006 79.99C125.017 80.166 125.276 80.934 125.382 81.501C125.461 81.921 125.593 82.151 125.031 82.211C124.799 82.236 124.541 82.491 124.629 82.724C124.853 83.313 124.285 83.495 124.177 83.803C123.843 84.751 123.304 85.834 123.371 86.698C123.463 87.888 122.034 88.263 122.395 89.357C122.281 89.387 122.154 89.395 122.054 89.451C121.831 89.577 121.637 89.798 121.747 90.035C121.983 90.542 121.908 90.776 121.325 90.918C120.984 91.001 120.914 91.383 121.09 91.719C121.219 91.965 121.285 92.174 120.924 92.241C120.005 92.41 120.169 93.185 120.331 93.659C120.609 94.471 120.27 94.643 119.559 94.748C119.559 93.639 119.557 92.565 119.56 91.491C119.561 91.216 119.496 90.796 119.796 90.758C120.419 90.679 120.273 90.268 120.275 89.915C120.283 88.115 120.28 86.316 120.277 84.516C120.277 84.277 120.29 83.841 120.231 83.829C119.071 83.599 119.615 82.695 119.582 82.099C119.508 80.743 119.568 79.381 119.55 78.021C119.547 77.775 119.731 77.352 119.388 77.301C118.607 77.184 118.915 76.617 118.839 76.205C118.523 74.469 119.333 72.695 118.222 70.907C117.618 69.935 118.354 68.344 117.449 67.129C117.142 66.717 117.332 65.877 117.414 65.248C117.54 64.277 117.092 64.116 116.253 64.157C115.492 64.194 114.926 64.225 115.398 65.205C115.516 65.45 115.219 65.5 115.167 65.622C114.718 66.663 112.714 66.617 113.262 68.339C113.267 68.355 113.211 68.398 113.178 68.418C111.776 69.275 111.072 70.921 109.19 71.728C109.716 71.759 109.973 71.522 110.116 71.753C110.178 71.852 110.164 71.949 110.045 72.05C108.955 72.98 108.173 74.209 106.999 75.077C106.407 75.515 105.581 76.072 105.377 76.552C104.988 77.468 104.117 77.775 103.615 78.506C103.146 79.189 102.363 79.756 101.728 80.385C100.644 81.459 99.562 82.536 98.463 83.595C97.35 84.668 96.254 85.765 95.082 86.771C94.003 87.697 93.461 89.323 91.717 89.416C91.63 89.421 91.574 89.666 91.472 89.769C90.393 90.867 89.353 91.996 88.334 93.153C87.051 94.61 85.56 95.888 84.219 97.31C83.689 97.872 83.183 98.716 82.509 98.892C80.939 99.303 80.201 100.31 79.792 101.711C79.342 101.842 79.705 100.788 79.334 101.281C78.234 102.741 76.77 103.829 75.583 105.196C74.941 105.935 74.492 106.757 73.948 107.503C72.9 108.94 71.201 109.896 70.113 111.312C69.507 112.102 67.864 112.35 68.387 113.914C68.393 113.932 68.046 114.008 68.008 114.11C67.502 115.465 65.27 115.543 65.527 117.458C65.534 117.513 65.444 117.582 65.395 117.642C64.873 118.276 63.426 118.312 64.064 119.697C63.921 119.756 63.652 119.816 63.653 119.873C63.662 120.695 62.326 120.312 62.477 121.153C62.568 121.664 62.783 122.04 61.98 122.057C61.606 122.065 61.75 122.494 61.754 122.751C61.758 122.959 62.048 123.106 61.82 123.385C61.303 124.02 59.842 124.048 60.459 125.441C60.462 125.448 60.271 125.586 60.172 125.585C59.485 125.577 59.495 125.988 59.639 126.463C59.704 126.68 59.923 126.978 59.536 127.003C58.717 127.055 58.733 127.472 58.986 128.041C59.143 128.394 58.921 128.474 58.663 128.474C58.015 128.474 58.091 128.894 58.181 129.296C58.236 129.543 58.537 129.867 58.027 129.897C57.244 129.942 57.335 130.382 57.524 130.876C57.605 131.088 57.661 131.308 57.391 131.327C56.171 131.415 56.835 132.304 56.734 132.854C56.699 133.045 57.075 133.394 56.736 133.443C55.429 133.635 56.057 134.523 56.079 135.167C56.085 135.358 56.225 135.618 55.979 135.632C54.765 135.704 55.387 136.593 55.284 137.147C55.247 137.344 55.639 137.686 55.317 137.745C53.903 138.006 54.658 138.999 54.623 139.699C54.602 140.112 54.742 140.804 54.406 140.828C53.632 140.885 53.895 141.353 53.795 141.747C53.622 142.435 54.389 143.43 53.154 143.797C53.093 143.815 53.095 144.093 53.093 144.25C53.07 146.194 52.904 148.143 52.904 150.073C52.905 155.093 52.542 160.121 53.097 165.138C53.232 166.361 53.092 167.614 53.095 168.853C53.096 169.125 53.16 169.634 53.205 169.635C54.488 169.67 53.644 170.58 53.811 171.059C54.006 171.619 53.252 172.614 54.552 172.68C54.612 172.683 54.719 172.863 54.709 172.949C54.582 173.983 53.975 175.047 55.376 175.855C55.603 175.986 54.768 177.539 56.15 177.842C55.806 178.802 55.777 179.661 56.887 180.159C56.506 180.841 56.594 181.255 57.476 181.354C57.738 181.384 57.542 181.667 57.483 181.842C57.393 182.109 57.325 182.582 57.547 182.595C58.692 182.661 58.083 183.416 58.13 183.912C58.156 184.186 58.173 184.697 58.218 184.699C59.355 184.768 58.765 185.661 58.905 186.19C59.184 186.075 58.99 185.647 59.326 185.649C59.62 185.65 59.552 185.927 59.585 186.1C59.718 186.807 60.76 187.185 60.309 188.109C60.278 188.172 60.403 188.401 60.448 188.399C61.401 188.352 61.124 188.937 61.028 189.461C61.006 189.583 61.119 189.84 61.2 189.854C62.431 190.059 62.559 190.935 62.513 191.935C62.512 191.957 62.642 191.985 62.725 192.015C62.98 191.878 62.444 191.446 63.108 191.392C63.102 192.159 63.607 192.693 64.144 193.186C64.556 193.564 65.12 193.83 64.637 194.533C64.554 194.654 64.661 194.828 64.823 194.917C66.612 195.897 67.73 197.602 69.168 198.959C70.772 200.473 72.411 201.969 73.85 203.632C74.497 204.379 75.569 204.145 76.078 205.023C76.393 205.565 76.861 206.246 77.391 206.393C78.884 206.808 79.78 208.113 81.156 208.661C81.561 208.822 81.424 209.468 82.053 209.618C83.175 209.885 84.275 210.403 84.966 211.359C85.462 212.046 86.028 211.627 86.551 211.718C86.912 211.781 87.093 211.49 87.163 211.127C87.282 210.516 86.939 210.304 86.44 210.148C86.178 210.066 86.07 209.744 85.92 209.548C84.866 208.173 82.985 207.413 82.781 205.397C82.771 205.301 82.642 205.208 82.555 205.13C81.733 204.39 80.436 204.002 80.629 202.515C79.49 202.333 80.253 200.749 79.054 200.454C78.498 200.317 78.599 198.953 78.317 198.836C77.422 198.464 77.779 197.914 77.799 197.362C77.809 197.089 77.784 196.582 77.72 196.573C76.462 196.401 77.203 195.491 77.092 194.915C77.034 194.614 77.149 194.236 76.652 194.235C76.048 194.234 76.254 193.94 76.303 193.546C76.354 193.13 76.728 192.392 76.083 192.277C75.27 192.132 75.314 191.625 75.441 191.181C75.837 189.8 75.551 188.406 75.639 187.023C75.651 186.832 75.6 186.47 75.552 186.465C74.204 186.335 75.055 185.374 74.945 184.812C74.786 184.003 75.09 183.154 74.76 182.334C74.667 182.104 74.869 181.599 75.117 181.75C75.758 182.141 75.649 181.686 75.639 181.373C75.588 179.821 75.793 178.261 75.521 176.717C75.493 176.557 75.398 176.348 75.572 176.32C76.906 176.108 76.344 175.209 76.2 174.523C76.123 174.155 76.367 173.668 76.393 173.661C77.455 173.382 76.948 172.657 76.945 172.033C76.944 171.834 76.93 171.332 77.322 171.263C77.778 171.183 77.233 171.828 77.737 171.857C77.737 171.328 77.76 170.826 77.725 170.329C77.712 170.153 77.492 169.866 77.739 169.839C78.627 169.743 78.685 169.326 78.339 168.637C78.263 168.486 78.414 168.333 78.601 168.335C79.364 168.343 79.344 167.891 79.137 167.384C79.019 167.096 79.02 166.906 79.356 166.894C80.151 166.866 80.041 166.393 79.84 165.914C79.704 165.589 79.811 165.482 80.11 165.442C80.334 165.412 80.749 165.419 80.641 165.142C80.12 163.811 81.628 163.635 81.915 162.783C82.065 162.336 82.942 162.816 82.826 162.112C82.676 161.198 83.451 160.895 83.788 160.311C84.127 159.723 85.278 159.903 84.999 158.914C84.884 158.504 85.205 158.353 85.363 158.075C85.787 157.326 86.523 156.894 87.059 156.288C87.348 155.962 87.807 155.712 87.999 155.234C88.985 155.726 89.24 154.712 89.779 154.335C90.945 153.518 91.42 151.803 93.169 151.722C93.245 151.719 93.335 151.576 93.382 151.48C94.372 149.458 96.645 148.86 98.036 147.283C98.08 147.233 98.184 147.214 98.26 147.215C99.207 147.217 99.779 146.676 100.184 145.892C100.671 146.507 100.555 144.343 101.209 145.668C101.221 145.692 101.443 145.67 101.494 145.609C102.27 144.674 103.308 144.078 104.23 143.366C105.37 142.484 106.506 141.528 107.739 140.745C108.071 140.534 107.893 139.972 108.383 140.02C109.373 140.115 109.809 139.433 110.241 138.735C110.244 138.73 112.293 137.677 112.295 137.671C112.32 137.596 112.319 137.498 112.368 137.448C114.552 135.26 116.826 133.163 118.87 130.838C119.067 130.613 119.291 130.623 119.513 130.678C119.877 130.768 119.643 130.998 119.639 131.216C119.572 135.2 119.398 139.186 119.71 143.169C119.743 143.587 119.647 144.215 119.294 144.228C118.758 144.248 118.841 144.488 118.84 144.789C118.838 145.589 118.853 146.389 118.835 147.188C118.824 147.653 118.905 147.944 119.479 147.931C119.986 147.92 120.345 147.873 120.286 147.231C120.254 146.884 120.293 146.646 120.74 146.421C121.721 145.927 122.003 144.734 122.319 143.87C122.601 143.099 123.389 142.625 123.403 141.667C123.409 141.255 123.489 142.105 123.799 141.981C123.936 140.614 124.412 139.137 125.341 138.264C125.957 137.685 126.096 137.113 126.044 136.371C126.028 136.145 126.062 135.939 126.218 135.716C126.672 135.069 127.167 134.418 127.447 133.692C127.788 132.805 128.672 132.049 128.235 130.924C128.176 130.773 128.386 130.658 128.555 130.657C129.105 130.654 129.082 130.433 129.082 129.914C129.082 129.162 130.043 128.67 129.93 127.786C131.08 127.7 130.53 126.902 130.481 126.369C130.456 126.1 130.243 125.707 130.572 125.67C131.761 125.537 131.282 124.769 131.19 124.176C131.147 123.9 130.953 123.54 131.33 123.498C132.515 123.365 131.905 122.517 131.991 121.958C132.021 121.764 131.654 121.416 131.986 121.368C133.292 121.178 132.668 120.289 132.647 119.644C132.641 119.454 132.499 119.191 132.743 119.177C133.96 119.108 133.28 118.2 133.46 117.669C133.772 116.748 134.505 115.937 134.159 114.853C134.197 114.844 134.236 114.827 134.274 114.828C135.162 114.856 134.793 114.167 134.931 113.736C135.143 113.075 134.141 112.019 135.564 111.729C135.623 111.717 135.634 111.36 135.63 111.164C135.62 110.647 135.629 110.123 135.549 109.615C135.512 109.379 135.326 109.163 135.688 109.08C135.912 109.029 136.298 108.993 136.297 109.258C136.292 110.241 137.514 110.844 137.088 111.945C137.027 112.102 137.072 112.387 137.183 112.508C138.014 113.413 138.569 114.421 138.52 115.692C138.516 115.809 138.504 115.97 138.571 116.038C139.5 116.986 140.029 118.09 139.971 119.444C139.966 119.55 140.035 119.747 140.094 119.756C140.88 119.883 140.627 120.49 140.677 120.962C140.722 121.389 140.877 121.721 141.116 122.115C141.467 122.691 142.139 123.357 142.064 124.029C141.921 125.315 143.303 126.174 142.864 127.473C142.846 127.525 142.918 127.664 142.965 127.672C143.819 127.822 143.495 128.493 143.552 128.989C143.579 129.226 143.533 129.661 143.598 129.676C144.687 129.93 144.144 130.797 144.272 131.4C144.326 131.654 144.189 132.001 144.593 132.069C145.147 132.163 145.05 132.62 144.978 132.913C144.572 134.557 146.202 135.849 145.742 137.493C145.719 137.573 145.826 137.773 145.893 137.783C146.733 137.91 146.387 138.563 146.425 139.012C146.489 139.763 146.197 140.926 146.571 141.193C147.426 141.804 147.093 142.504 147.14 143.172C147.202 144.047 147.145 144.931 147.166 145.81C147.169 145.954 147.054 146.339 147.312 146.238C148.415 145.806 147.847 146.742 147.849 146.955C147.885 151.234 147.875 155.513 147.876 159.792C147.876 161.076 148.361 161.388 149.607 161.143C150.168 161.033 149.556 160.485 150.075 160.398C151.01 160.241 151.504 159.287 152.016 158.715C152.543 158.125 152.962 157.267 153.433 156.542C153.839 155.918 154.713 155.055 154.385 153.916C154.197 153.264 154.651 152.824 155.353 153.131C156.084 153.451 155.662 154.584 156.472 154.912C155.83 155.167 156.366 155.324 156.448 155.629C156.759 156.782 157.173 157.836 158.095 158.631C158.599 159.066 158.487 159.928 158.805 160.203C159.806 161.069 159.605 162.353 159.977 163.36C160.343 164.351 161.298 165.366 160.865 166.628C160.857 166.653 160.893 166.717 160.92 166.726C161.923 167.041 161.495 167.876 161.538 168.509C161.594 169.332 161.552 170.162 161.552 171.071C161.856 170.932 161.752 170.492 162.045 170.546C162.372 170.607 162.264 170.922 162.266 171.137C162.277 172.523 162.272 173.914 162.272 175.372Z" fill="#D62E27"/>
    </svg>
    