<svg width="258" height="258" viewBox="0 0 258 258" fill="none" xmlns="http://www.w3.org/2000/svg">
    <path d="M128.755 257.441C93.634 257.067 63.052 244.721 38.155 219.672C11.714 193.071 -0.685015 160.51 0.944985 123.033C2.38399 89.974 15.083 61.425 38.586 38.2C65.33 11.772 97.957 -0.629014 135.515 1.10899C168.431 2.63199 196.856 15.354 219.981 38.765C246.34 65.449 258.73 97.997 257.051 135.465C255.568 168.566 242.762 197.098 219.206 220.336C194.325 244.88 164.042 257.082 128.755 257.441ZM129.191 30.771C122.073 30.771 114.956 30.791 107.838 30.747C106.87 30.741 106.596 31.025 106.66 31.951C106.707 32.626 106.887 33.289 106.897 33.946C106.951 37.802 107.184 41.647 107.375 45.497C107.554 49.106 107.696 52.717 107.841 56.327C108.004 60.377 108.204 64.426 108.338 68.476C108.447 71.77 108.671 75.057 108.805 78.347C108.964 82.277 109.123 86.207 109.289 90.137C109.438 93.668 109.613 97.197 109.766 100.727C109.929 104.497 110.089 108.267 110.246 112.037C110.4 115.728 110.572 119.417 110.726 123.107C110.881 126.837 111.053 130.567 111.208 134.297C111.36 137.948 111.537 141.597 111.685 145.247C111.838 149.018 112.047 152.788 112.15 156.557C112.229 159.422 112.582 162.281 112.427 165.149C112.383 165.976 112.704 166.141 113.454 166.128C115.813 166.087 118.172 166.113 120.531 166.113C128.568 166.113 136.606 166.095 144.643 166.137C145.613 166.142 145.765 165.837 145.831 164.935C146.04 162.086 146.062 159.229 146.224 156.379C146.438 152.614 146.562 148.84 146.72 145.07C146.871 141.459 147.051 137.85 147.2 134.24C147.359 130.39 147.52 126.54 147.682 122.69C147.833 119.119 148.008 115.55 148.158 111.98C148.321 108.09 148.495 104.2 148.645 100.31C148.781 96.778 148.967 93.25 149.119 89.719C149.283 85.909 149.442 82.099 149.602 78.289C149.752 74.718 149.929 71.149 150.078 67.579C150.242 63.649 150.409 59.719 150.564 55.789C150.702 52.297 150.933 48.808 151.03 45.319C151.155 40.827 151.441 36.342 151.577 31.852C151.606 30.907 151.279 30.747 150.422 30.751C143.346 30.785 136.269 30.771 129.191 30.771ZM129.003 175.713C115.581 175.339 105.704 186.513 104.972 197.727C103.941 213.52 116.344 223.066 127.076 223.745C142.788 224.739 152.328 212.358 153.051 201.575C154.077 186.269 141.519 175.156 129.003 175.713Z" fill="#E9B93F"/>
    </svg>
    